HIERARCHY
ROOT Hips
{
 OFFSET 0.000000 0.000000 0.000000
 CHANNELS 6 Xposition Yposition Zposition Yrotation Xrotation Zrotation
 JOINT Chest
 {
  OFFSET 0.000000 9.585900 0.002600
  CHANNELS 3 Yrotation Xrotation Zrotation
  JOINT Chest2
  {
   OFFSET 0.000000 9.601200 -0.005300
   CHANNELS 3 Yrotation Xrotation Zrotation
   JOINT Chest3
   {
    OFFSET 0.000000 9.561800 0.000000
    CHANNELS 3 Yrotation Xrotation Zrotation
    JOINT Chest4
    {
     OFFSET 0.000000 9.552100 0.000000
     CHANNELS 3 Yrotation Xrotation Zrotation
     JOINT Neck
     {
      OFFSET 0.000000 14.453000 0.000000
      CHANNELS 3 Yrotation Xrotation Zrotation
      JOINT Head
      {
       OFFSET 0.000000 8.936500 -0.011300
       CHANNELS 3 Yrotation Xrotation Zrotation
       End Site
       {
        OFFSET 0.000000 17.073600 -0.006000
       }
      }
     }
     JOINT RightCollar
     {
      OFFSET -2.921100 9.558500 0.000000
      CHANNELS 3 Yrotation Xrotation Zrotation
      JOINT RightShoulder
      {
       OFFSET -13.519700 0.000000 0.000000
       CHANNELS 3 Yrotation Xrotation Zrotation
       JOINT RightElbow
       {
        OFFSET 0.000000 -29.696600 0.000000
        CHANNELS 3 Yrotation Xrotation Zrotation
        JOINT RightWrist
        {
         OFFSET 0.000000 -24.004700 0.000000
         CHANNELS 3 Yrotation Xrotation Zrotation
         End Site
         {
          OFFSET 0.000000 -17.728500 0.000000
         }
        }
       }
      }
     }
     JOINT LeftCollar
     {
      OFFSET 2.921100 9.558500 0.000000
      CHANNELS 3 Yrotation Xrotation Zrotation
      JOINT LeftShoulder
      {
       OFFSET 13.519700 0.000000 0.000000
       CHANNELS 3 Yrotation Xrotation Zrotation
       JOINT LeftElbow
       {
        OFFSET 0.000000 -29.696600 0.000000
        CHANNELS 3 Yrotation Xrotation Zrotation
        JOINT LeftWrist
        {
         OFFSET 0.000000 -24.004700 0.000000
         CHANNELS 3 Yrotation Xrotation Zrotation
         End Site
         {
          OFFSET 0.000000 -17.728500 0.000000
         }
        }
       }
      }
     }
    }
   }
  }
 }
 JOINT RightHip
 {
  OFFSET -7.771700 -0.012900 -0.001300
  CHANNELS 3 Yrotation Xrotation Zrotation
  JOINT RightKnee
  {
   OFFSET 0.000000 -40.869800 0.001200
   CHANNELS 3 Yrotation Xrotation Zrotation
   JOINT RightAnkle
   {
    OFFSET 0.000000 -39.717900 0.002100
    CHANNELS 3 Yrotation Xrotation Zrotation
    JOINT RightToe
    {
     OFFSET 0.000000 -4.965400 11.033500
     CHANNELS 3 Yrotation Xrotation Zrotation
     End Site
     {
      OFFSET 0.000000 -1.423100 5.872300
     }
    }
   }
  }
 }
 JOINT LeftHip
 {
  OFFSET 7.771700 -0.012900 -0.001300
  CHANNELS 3 Yrotation Xrotation Zrotation
  JOINT LeftKnee
  {
   OFFSET 0.000000 -40.869800 0.001200
   CHANNELS 3 Yrotation Xrotation Zrotation
   JOINT LeftAnkle
   {
    OFFSET 0.000000 -39.717900 0.002100
    CHANNELS 3 Yrotation Xrotation Zrotation
    JOINT LeftToe
    {
     OFFSET 0.000000 -4.965400 11.033500
     CHANNELS 3 Yrotation Xrotation Zrotation
     End Site
     {
      OFFSET 0.000000 -1.423100 5.872300
     }
    }
   }
  }
 }
}
MOTION
Frames: 5
Frame Time: 0.008333
0.000000 85.388000 0.000000 0.000000 -5.767877 0.000000 0.000000 11.653817 0.000000 0.000000 -5.885947 0.000000 0.000000 -0.000000 0.000000 0.000000 -0.000000 0.000000 0.000000 12.528835 0.000000 0.000000 0.711642 0.000000 0.000000 -0.000000 0.000000 0.000000 0.000000 -90.000000 0.000000 -2.309062 0.000000 0.000000 2.309062 0.000000 0.000000 -0.000000 0.000000 0.000000 -0.000000 90.000000 0.000000 -2.309062 0.000000 0.000000 2.309062 0.000000 0.000000 8.520406 0.000000 0.000000 1.905762 0.000000 -0.000000 -4.658285 0.000000 0.000000 -0.000000 0.000000 0.000000 8.520406 0.000000 0.000000 1.905762 0.000000 -0.000000 -4.658285 0.000000 0.000000 -0.000000 0.000000
-18.590977 58.354486 28.673324 168.190030 -40.497536 1.092395 7.178481 22.717403 3.194443 0.973822 3.421858 0.299371 1.579201 5.507703 0.511492 5.863515 19.033959 2.509626 -9.192144 9.237177 -3.667471 -16.390967 -18.475458 -2.716512 5.077815 3.044459 1.228000 24.243500 -34.926408 -17.078935 33.903408 -36.849756 -11.528432 7.925410 -4.434224 -29.074122 -9.613873 -0.441524 -3.059759 -16.145143 -27.960469 10.546692 -62.961134 -41.052757 32.705434 -29.508670 0.246541 27.462174 15.073637 -31.970596 0.294352 -9.236521 71.178411 -4.833066 0.060481 1.904614 1.094905 -0.013292 -0.071065 0.046236 -3.722380 -34.382598 3.412746 30.029481 70.701568 24.275650 -27.177598 1.804000 -1.365148 -0.007736 0.114353 0.186500
-18.615209 58.370661 28.661229 168.275126 -40.432646 1.078851 7.152743 22.671991 3.208947 0.944260 3.403298 0.277355 1.593946 5.484930 0.539984 5.825415 19.028001 2.493106 -9.271166 9.272852 -3.666027 -16.565343 -18.346146 -2.711131 5.067839 3.183739 1.182891 24.065900 -35.024719 -17.152949 32.881940 -37.461058 -10.563050 7.320032 -4.333977 -29.480671 -9.554684 -0.464188 -3.042516 -16.147170 -27.915941 10.514137 -62.839869 -41.047809 32.516395 -29.376833 0.211707 27.619410 15.119368 -32.020362 0.235107 -9.328426 71.197868 -4.955497 0.040933 1.881344 1.167678 -0.009031 -0.068427 0.044620 -3.753211 -34.450598 3.379647 30.123476 70.718452 24.327108 -27.190110 1.788873 -1.337005 -0.045388 0.106809 0.167202
-18.637327 58.383391 28.648806 168.366611 -40.352977 1.032950 7.125720 22.614630 3.250779 0.917263 3.380099 0.251855 1.606424 5.469943 0.573119 5.791979 19.015306 2.473899 -9.379612 9.324340 -3.615340 -16.679489 -18.254276 -2.748094 5.040454 3.311323 1.137876 23.822515 -35.089979 -17.201421 31.998412 -38.187732 -9.643119 6.819594 -4.241377 -29.969638 -9.534624 -0.461233 -3.050491 -16.156964 -27.895026 10.493522 -62.668831 -41.002876 32.364839 -29.247947 0.192474 27.764559 15.111055 -32.092518 0.213632 -9.373449 71.218827 -5.047748 0.017499 1.856056 1.235460 0.014703 -0.056225 0.028206 -3.791454 -34.534388 3.394573 30.082360 70.745694 24.270174 -27.224267 1.794676 -1.325016 -0.013836 0.081958 0.147412
-18.656630 58.389149 28.635837 168.463086 -40.266398 0.957846 7.098006 22.552759 3.318005 0.946583 3.374004 0.296213 1.555605 5.443541 0.538471 5.792176 18.948803 2.546154 -9.504806 9.411865 -3.669366 -16.809779 -18.159767 -2.758267 4.972372 3.490090 1.010489 23.518140 -35.122719 -17.226155 31.346139 -39.013270 -8.860911 6.470446 -4.145144 -30.439076 -9.542713 -0.426720 -3.150445 -16.112835 -27.822986 10.578608 -62.457292 -41.114248 32.178289 -29.045889 0.171405 27.942423 15.086813 -32.184561 0.217992 -9.420831 71.246351 -5.140141 0.004106 1.834843 1.301804 0.010096 -0.055474 0.022936 -3.828874 -34.623113 3.455076 29.957065 70.786202 24.138811 -27.270872 1.802512 -1.342259 0.025145 0.055950 0.162198
